<svg xmlns="http://www.w3.org/2000/svg" xmlns:xlink="http://www.w3.org/1999/xlink" width="500" zoomAndPan="magnify" viewBox="0 0 375 374.999991" height="500" preserveAspectRatio="xMidYMid meet" version="1.0"><defs><g/><clipPath id="f44b59d43e"><path d="M 177 136.730469 L 242.507812 136.730469 L 242.507812 190.730469 L 177 190.730469 Z M 177 136.730469 " clip-rule="nonzero"/></clipPath><clipPath id="13b93b4bd5"><path d="M 176 136.730469 L 237 136.730469 L 237 190.730469 L 176 190.730469 Z M 176 136.730469 " clip-rule="nonzero"/></clipPath><clipPath id="5baeb60b09"><path d="M 177 136.730469 L 232 136.730469 L 232 189 L 177 189 Z M 177 136.730469 " clip-rule="nonzero"/></clipPath><clipPath id="f03c51fa28"><path d="M 132.257812 136.730469 L 198 136.730469 L 198 190.730469 L 132.257812 190.730469 Z M 132.257812 136.730469 " clip-rule="nonzero"/></clipPath><clipPath id="6956ff8bef"><path d="M 135 136.730469 L 198 136.730469 L 198 190.730469 L 135 190.730469 Z M 135 136.730469 " clip-rule="nonzero"/></clipPath><clipPath id="3ed0528c0f"><path d="M 141 136.730469 L 197 136.730469 L 197 188 L 141 188 Z M 141 136.730469 " clip-rule="nonzero"/></clipPath><clipPath id="e5c7c6ec50"><path d="M 132.257812 144 L 242.507812 144 L 242.507812 190.730469 L 132.257812 190.730469 Z M 132.257812 144 " clip-rule="nonzero"/></clipPath></defs><rect x="-37.5" width="450" fill="#ffffff" y="-37.499999" height="449.999989" fill-opacity="1"/><rect x="-37.5" width="450" fill="#ffffff" y="-37.499999" height="449.999989" fill-opacity="1"/><rect x="-37.5" width="450" fill="#ffffff" y="-37.499999" height="449.999989" fill-opacity="1"/><path fill="#a6a6a6" d="M 239.886719 146.238281 C 239.886719 146.238281 193.964844 159.773438 187.191406 187.199219 " fill-opacity="1" fill-rule="nonzero"/><path fill="#a6a6a6" d="M 135.113281 146.238281 C 145.675781 149.882812 156.117188 154.132812 165.496094 160.324219 C 175.191406 166.722656 184.910156 175.480469 187.804688 187.199219 " fill-opacity="1" fill-rule="nonzero"/><g clip-path="url(#f44b59d43e)"><path stroke-linecap="butt" transform="matrix(0.360412, 0, 0, 0.360905, 110.777875, 86.029022)" fill="none" stroke-linejoin="miter" d="M 345.013948 167.380644 C 345.013948 167.380644 222.931401 192.566909 213.718851 274.966148 " stroke="#faddbf" stroke-width="2" stroke-opacity="1" stroke-miterlimit="10"/></g><g clip-path="url(#13b93b4bd5)"><path stroke-linecap="butt" transform="matrix(0.360412, 0, 0, 0.360905, 110.777875, 86.029022)" fill="none" stroke-linejoin="miter" d="M 320.54108 147.736008 C 320.54108 147.736008 205.546777 195.846427 212.299035 278.494606 " stroke="#faddbf" stroke-width="2" stroke-opacity="1" stroke-miterlimit="10"/></g><g clip-path="url(#5baeb60b09)"><path stroke-linecap="butt" transform="matrix(0.360412, 0, 0, 0.360905, 110.777875, 86.029022)" fill="none" stroke-linejoin="miter" d="M 309.811168 141.404265 C 309.811168 141.404265 205.958632 184.849759 212.060592 259.499379 " stroke="#faddbf" stroke-width="1.806" stroke-opacity="1" stroke-miterlimit="10"/></g><g clip-path="url(#f03c51fa28)"><path stroke-linecap="butt" transform="matrix(0.360412, 0, 0, 0.360905, 110.777875, 86.029022)" fill="none" stroke-linejoin="miter" d="M 80.35364 167.607938 C 80.35364 167.607938 202.512055 192.361262 212.017239 274.738855 " stroke="#faddbf" stroke-width="2" stroke-opacity="1" stroke-miterlimit="10"/></g><g clip-path="url(#6956ff8bef)"><path stroke-linecap="butt" transform="matrix(0.360412, 0, 0, 0.360905, 110.777875, 86.029022)" fill="none" stroke-linejoin="miter" d="M 97.89 150.517645 C 97.89 150.517645 215.138668 192.837496 212.515801 275.712969 " stroke="#faddbf" stroke-width="2" stroke-opacity="1" stroke-miterlimit="10"/></g><g clip-path="url(#3ed0528c0f)"><path stroke-linecap="butt" transform="matrix(0.360412, 0, 0, 0.360905, 110.777875, 86.029022)" fill="none" stroke-linejoin="miter" d="M 109.779609 141.404265 C 109.779609 141.404265 215.669744 179.622013 213.306996 254.477279 " stroke="#faddbf" stroke-width="1.806" stroke-opacity="1" stroke-miterlimit="10"/></g><g clip-path="url(#e5c7c6ec50)"><path fill="#000000" d="M 241.910156 145.433594 L 241.757812 145.242188 C 241.136719 144.464844 240.003906 144.339844 239.226562 144.960938 L 187.679688 186.238281 C 187.484375 186.238281 187.292969 186.230469 187.101562 186.21875 L 135.578125 144.960938 C 134.800781 144.339844 133.664062 144.464844 133.042969 145.242188 L 132.894531 145.433594 C 132.273438 146.210938 132.398438 147.347656 133.175781 147.96875 C 139.765625 153.332031 145.886719 159.496094 152.875 164.464844 C 158.132812 168.203125 162.707031 172.339844 167.742188 176.375 C 170.984375 178.96875 174.632812 181.242188 177.910156 183.789062 C 178.335938 184.128906 181.886719 186.363281 181.886719 186.972656 C 181.863281 187.101562 181.84375 187.234375 181.84375 187.367188 C 181.84375 189.148438 184.136719 190.605469 187.039062 190.726562 C 187.089844 190.730469 187.136719 190.730469 187.183594 190.730469 C 187.265625 190.734375 187.347656 190.738281 187.429688 190.738281 C 187.507812 190.738281 187.582031 190.730469 187.65625 190.730469 C 187.6875 190.730469 187.71875 190.730469 187.75 190.726562 C 190.6875 190.625 193.015625 189.164062 193.015625 187.367188 C 193.015625 187.21875 192.996094 187.074219 192.964844 186.933594 C 192.765625 186.003906 202.035156 179.8125 203.136719 178.929688 C 206.339844 176.367188 209.472656 173.714844 212.675781 171.152344 C 218.492188 166.492188 224.457031 162.445312 230.273438 157.785156 C 234.109375 154.71875 237.792969 151.035156 241.628906 147.96875 C 242.402344 147.34375 242.53125 146.210938 241.910156 145.433594 Z M 241.910156 145.433594 " fill-opacity="1" fill-rule="nonzero"/></g><g fill="#000000" fill-opacity="1"><g transform="translate(53.821873, 227.268134)"><g><path d="M 17.28125 -7.46875 C 17.28125 -8.570312 16.890625 -9.421875 16.109375 -10.015625 C 15.328125 -10.609375 13.921875 -11.234375 11.890625 -11.890625 C 9.859375 -12.546875 8.253906 -13.191406 7.078125 -13.828125 C 3.847656 -15.578125 2.234375 -17.925781 2.234375 -20.875 C 2.234375 -22.414062 2.664062 -23.785156 3.53125 -24.984375 C 4.394531 -26.191406 5.632812 -27.132812 7.25 -27.8125 C 8.875 -28.488281 10.695312 -28.828125 12.71875 -28.828125 C 14.75 -28.828125 16.554688 -28.457031 18.140625 -27.71875 C 19.734375 -26.988281 20.96875 -25.953125 21.84375 -24.609375 C 22.726562 -23.265625 23.171875 -21.742188 23.171875 -20.046875 L 17.3125 -20.046875 C 17.3125 -21.347656 16.898438 -22.359375 16.078125 -23.078125 C 15.253906 -23.796875 14.101562 -24.15625 12.625 -24.15625 C 11.1875 -24.15625 10.070312 -23.851562 9.28125 -23.25 C 8.488281 -22.644531 8.09375 -21.847656 8.09375 -20.859375 C 8.09375 -19.929688 8.554688 -19.15625 9.484375 -18.53125 C 10.410156 -17.90625 11.78125 -17.320312 13.59375 -16.78125 C 16.925781 -15.78125 19.351562 -14.535156 20.875 -13.046875 C 22.40625 -11.566406 23.171875 -9.71875 23.171875 -7.5 C 23.171875 -5.039062 22.238281 -3.109375 20.375 -1.703125 C 18.507812 -0.304688 16.003906 0.390625 12.859375 0.390625 C 10.671875 0.390625 8.675781 -0.0078125 6.875 -0.8125 C 5.082031 -1.613281 3.710938 -2.707031 2.765625 -4.09375 C 1.816406 -5.488281 1.34375 -7.109375 1.34375 -8.953125 L 7.234375 -8.953125 C 7.234375 -5.804688 9.109375 -4.234375 12.859375 -4.234375 C 14.242188 -4.234375 15.328125 -4.515625 16.109375 -5.078125 C 16.890625 -5.648438 17.28125 -6.445312 17.28125 -7.46875 Z M 17.28125 -7.46875 "/></g></g></g><g fill="#000000" fill-opacity="1"><g transform="translate(78.409319, 227.268134)"><g><path d="M 14.828125 -2.15625 C 13.429688 -0.457031 11.503906 0.390625 9.046875 0.390625 C 6.773438 0.390625 5.046875 -0.257812 3.859375 -1.5625 C 2.671875 -2.863281 2.0625 -4.769531 2.03125 -7.28125 L 2.03125 -21.140625 L 7.671875 -21.140625 L 7.671875 -7.484375 C 7.671875 -5.285156 8.675781 -4.1875 10.6875 -4.1875 C 12.601562 -4.1875 13.914062 -4.847656 14.625 -6.171875 L 14.625 -21.140625 L 20.296875 -21.140625 L 20.296875 0 L 14.984375 0 Z M 14.828125 -2.15625 "/></g></g></g><g fill="#000000" fill-opacity="1"><g transform="translate(100.789945, 227.268134)"><g><path d="M 1.34375 -10.71875 C 1.34375 -13.96875 2.113281 -16.582031 3.65625 -18.5625 C 5.207031 -20.539062 7.289062 -21.53125 9.90625 -21.53125 C 12.21875 -21.53125 14.019531 -20.734375 15.3125 -19.140625 L 15.546875 -21.140625 L 20.671875 -21.140625 L 20.671875 -0.703125 C 20.671875 1.148438 20.25 2.757812 19.40625 4.125 C 18.5625 5.488281 17.378906 6.53125 15.859375 7.25 C 14.335938 7.96875 12.554688 8.328125 10.515625 8.328125 C 8.960938 8.328125 7.445312 8.015625 5.96875 7.390625 C 4.5 6.773438 3.390625 5.976562 2.640625 5 L 5.140625 1.5625 C 6.546875 3.132812 8.25 3.921875 10.25 3.921875 C 11.75 3.921875 12.914062 3.519531 13.75 2.71875 C 14.582031 1.925781 15 0.789062 15 -0.6875 L 15 -1.8125 C 13.695312 -0.34375 11.984375 0.390625 9.859375 0.390625 C 7.328125 0.390625 5.273438 -0.597656 3.703125 -2.578125 C 2.128906 -4.566406 1.34375 -7.203125 1.34375 -10.484375 Z M 7 -10.3125 C 7 -8.394531 7.378906 -6.894531 8.140625 -5.8125 C 8.910156 -4.726562 9.96875 -4.1875 11.3125 -4.1875 C 13.03125 -4.1875 14.257812 -4.828125 15 -6.109375 L 15 -15 C 14.25 -16.289062 13.03125 -16.9375 11.34375 -16.9375 C 9.988281 -16.9375 8.925781 -16.378906 8.15625 -15.265625 C 7.382812 -14.160156 7 -12.507812 7 -10.3125 Z M 7 -10.3125 "/></g></g></g><g fill="#000000" fill-opacity="1"><g transform="translate(123.619751, 227.268134)"><g><path d="M 1.34375 -10.71875 C 1.34375 -13.96875 2.113281 -16.582031 3.65625 -18.5625 C 5.207031 -20.539062 7.289062 -21.53125 9.90625 -21.53125 C 12.21875 -21.53125 14.019531 -20.734375 15.3125 -19.140625 L 15.546875 -21.140625 L 20.671875 -21.140625 L 20.671875 -0.703125 C 20.671875 1.148438 20.25 2.757812 19.40625 4.125 C 18.5625 5.488281 17.378906 6.53125 15.859375 7.25 C 14.335938 7.96875 12.554688 8.328125 10.515625 8.328125 C 8.960938 8.328125 7.445312 8.015625 5.96875 7.390625 C 4.5 6.773438 3.390625 5.976562 2.640625 5 L 5.140625 1.5625 C 6.546875 3.132812 8.25 3.921875 10.25 3.921875 C 11.75 3.921875 12.914062 3.519531 13.75 2.71875 C 14.582031 1.925781 15 0.789062 15 -0.6875 L 15 -1.8125 C 13.695312 -0.34375 11.984375 0.390625 9.859375 0.390625 C 7.328125 0.390625 5.273438 -0.597656 3.703125 -2.578125 C 2.128906 -4.566406 1.34375 -7.203125 1.34375 -10.484375 Z M 7 -10.3125 C 7 -8.394531 7.378906 -6.894531 8.140625 -5.8125 C 8.910156 -4.726562 9.96875 -4.1875 11.3125 -4.1875 C 13.03125 -4.1875 14.257812 -4.828125 15 -6.109375 L 15 -15 C 14.25 -16.289062 13.03125 -16.9375 11.34375 -16.9375 C 9.988281 -16.9375 8.925781 -16.378906 8.15625 -15.265625 C 7.382812 -14.160156 7 -12.507812 7 -10.3125 Z M 7 -10.3125 "/></g></g></g><g fill="#000000" fill-opacity="1"><g transform="translate(146.449556, 227.268134)"><g><path d="M 11.890625 0.390625 C 8.796875 0.390625 6.273438 -0.554688 4.328125 -2.453125 C 2.378906 -4.359375 1.40625 -6.894531 1.40625 -10.0625 L 1.40625 -10.609375 C 1.40625 -12.734375 1.816406 -14.628906 2.640625 -16.296875 C 3.460938 -17.972656 4.625 -19.265625 6.125 -20.171875 C 7.625 -21.078125 9.335938 -21.53125 11.265625 -21.53125 C 14.160156 -21.53125 16.4375 -20.617188 18.09375 -18.796875 C 19.757812 -16.972656 20.59375 -14.382812 20.59375 -11.03125 L 20.59375 -8.734375 L 7.125 -8.734375 C 7.3125 -7.347656 7.863281 -6.238281 8.78125 -5.40625 C 9.695312 -4.570312 10.859375 -4.15625 12.265625 -4.15625 C 14.441406 -4.15625 16.140625 -4.945312 17.359375 -6.53125 L 20.140625 -3.421875 C 19.296875 -2.222656 18.148438 -1.285156 16.703125 -0.609375 C 15.253906 0.0546875 13.648438 0.390625 11.890625 0.390625 Z M 11.25 -16.953125 C 10.132812 -16.953125 9.226562 -16.570312 8.53125 -15.8125 C 7.832031 -15.0625 7.382812 -13.984375 7.1875 -12.578125 L 15.046875 -12.578125 L 15.046875 -13.03125 C 15.015625 -14.28125 14.671875 -15.242188 14.015625 -15.921875 C 13.367188 -16.609375 12.445312 -16.953125 11.25 -16.953125 Z M 11.25 -16.953125 "/></g></g></g><g fill="#000000" fill-opacity="1"><g transform="translate(168.068543, 227.268134)"><g><path d="M 13.609375 -5.84375 C 13.609375 -6.53125 13.265625 -7.070312 12.578125 -7.46875 C 11.898438 -7.863281 10.804688 -8.21875 9.296875 -8.53125 C 4.273438 -9.59375 1.765625 -11.726562 1.765625 -14.9375 C 1.765625 -16.8125 2.539062 -18.378906 4.09375 -19.640625 C 5.644531 -20.898438 7.679688 -21.53125 10.203125 -21.53125 C 12.878906 -21.53125 15.019531 -20.894531 16.625 -19.625 C 18.238281 -18.363281 19.046875 -16.722656 19.046875 -14.703125 L 13.40625 -14.703125 C 13.40625 -15.515625 13.144531 -16.179688 12.625 -16.703125 C 12.101562 -17.234375 11.285156 -17.5 10.171875 -17.5 C 9.222656 -17.5 8.488281 -17.285156 7.96875 -16.859375 C 7.445312 -16.429688 7.1875 -15.882812 7.1875 -15.21875 C 7.1875 -14.59375 7.484375 -14.085938 8.078125 -13.703125 C 8.671875 -13.316406 9.671875 -12.984375 11.078125 -12.703125 C 12.484375 -12.421875 13.664062 -12.109375 14.625 -11.765625 C 17.613281 -10.671875 19.109375 -8.773438 19.109375 -6.078125 C 19.109375 -4.148438 18.28125 -2.585938 16.625 -1.390625 C 14.96875 -0.203125 12.832031 0.390625 10.21875 0.390625 C 8.445312 0.390625 6.875 0.078125 5.5 -0.546875 C 4.125 -1.179688 3.046875 -2.050781 2.265625 -3.15625 C 1.484375 -4.257812 1.09375 -5.445312 1.09375 -6.71875 L 6.453125 -6.71875 C 6.503906 -5.71875 6.875 -4.945312 7.5625 -4.40625 C 8.25 -3.875 9.171875 -3.609375 10.328125 -3.609375 C 11.410156 -3.609375 12.226562 -3.8125 12.78125 -4.21875 C 13.332031 -4.632812 13.609375 -5.175781 13.609375 -5.84375 Z M 13.609375 -5.84375 "/></g></g></g><g fill="#000000" fill-opacity="1"><g transform="translate(188.632945, 227.268134)"><g><path d="M 8.921875 -26.328125 L 8.921875 -21.140625 L 12.546875 -21.140625 L 12.546875 -17 L 8.921875 -17 L 8.921875 -6.453125 C 8.921875 -5.671875 9.070312 -5.109375 9.375 -4.765625 C 9.675781 -4.429688 10.25 -4.265625 11.09375 -4.265625 C 11.71875 -4.265625 12.269531 -4.304688 12.75 -4.390625 L 12.75 -0.125 C 11.644531 0.21875 10.507812 0.390625 9.34375 0.390625 C 5.382812 0.390625 3.363281 -1.609375 3.28125 -5.609375 L 3.28125 -17 L 0.203125 -17 L 0.203125 -21.140625 L 3.28125 -21.140625 L 3.28125 -26.328125 Z M 8.921875 -26.328125 "/></g></g></g><g fill="#000000" fill-opacity="1"><g transform="translate(202.147249, 227.268134)"><g><path d="M 18.59375 -5.859375 L 8.328125 -5.859375 L 6.375 0 L 0.140625 0 L 10.71875 -28.4375 L 16.15625 -28.4375 L 26.796875 0 L 20.5625 0 Z M 9.90625 -10.609375 L 17.015625 -10.609375 L 13.4375 -21.25 Z M 9.90625 -10.609375 "/></g></g></g><g fill="#000000" fill-opacity="1"><g transform="translate(229.058681, 227.268134)"><g><path d="M 2.546875 0 L 2.546875 -28.4375 L 12.5 -28.4375 C 15.945312 -28.4375 18.5625 -27.773438 20.34375 -26.453125 C 22.132812 -25.128906 23.03125 -23.191406 23.03125 -20.640625 C 23.03125 -19.253906 22.671875 -18.03125 21.953125 -16.96875 C 21.234375 -15.90625 20.238281 -15.125 18.96875 -14.625 C 20.425781 -14.257812 21.570312 -13.523438 22.40625 -12.421875 C 23.25 -11.316406 23.671875 -9.960938 23.671875 -8.359375 C 23.671875 -5.628906 22.796875 -3.5625 21.046875 -2.15625 C 19.304688 -0.75 16.820312 -0.03125 13.59375 0 Z M 8.40625 -12.390625 L 8.40625 -4.703125 L 13.421875 -4.703125 C 14.796875 -4.703125 15.867188 -5.03125 16.640625 -5.6875 C 17.421875 -6.351562 17.8125 -7.265625 17.8125 -8.421875 C 17.8125 -11.023438 16.460938 -12.347656 13.765625 -12.390625 Z M 8.40625 -16.53125 L 12.734375 -16.53125 C 15.691406 -16.582031 17.171875 -17.757812 17.171875 -20.0625 C 17.171875 -21.351562 16.796875 -22.28125 16.046875 -22.84375 C 15.296875 -23.40625 14.113281 -23.6875 12.5 -23.6875 L 8.40625 -23.6875 Z M 8.40625 -16.53125 "/></g></g></g><g fill="#000000" fill-opacity="1"><g transform="translate(254.583547, 227.268134)"><g><path d="M 1.296875 -10.765625 C 1.296875 -12.859375 1.695312 -14.722656 2.5 -16.359375 C 3.3125 -18.003906 4.472656 -19.273438 5.984375 -20.171875 C 7.503906 -21.078125 9.265625 -21.53125 11.265625 -21.53125 C 14.117188 -21.53125 16.445312 -20.65625 18.25 -18.90625 C 20.050781 -17.164062 21.054688 -14.796875 21.265625 -11.796875 L 21.3125 -10.359375 C 21.3125 -7.109375 20.40625 -4.503906 18.59375 -2.546875 C 16.78125 -0.585938 14.347656 0.390625 11.296875 0.390625 C 8.253906 0.390625 5.828125 -0.582031 4.015625 -2.53125 C 2.203125 -4.488281 1.296875 -7.148438 1.296875 -10.515625 Z M 6.9375 -10.359375 C 6.9375 -8.347656 7.3125 -6.8125 8.0625 -5.75 C 8.820312 -4.6875 9.90625 -4.15625 11.3125 -4.15625 C 12.675781 -4.15625 13.742188 -4.679688 14.515625 -5.734375 C 15.285156 -6.785156 15.671875 -8.460938 15.671875 -10.765625 C 15.671875 -12.734375 15.285156 -14.253906 14.515625 -15.328125 C 13.742188 -16.410156 12.660156 -16.953125 11.265625 -16.953125 C 9.890625 -16.953125 8.820312 -16.414062 8.0625 -15.34375 C 7.3125 -14.269531 6.9375 -12.609375 6.9375 -10.359375 Z M 6.9375 -10.359375 "/></g></g></g><g fill="#000000" fill-opacity="1"><g transform="translate(277.198536, 227.268134)"><g><path d="M 1.296875 -10.765625 C 1.296875 -12.859375 1.695312 -14.722656 2.5 -16.359375 C 3.3125 -18.003906 4.472656 -19.273438 5.984375 -20.171875 C 7.503906 -21.078125 9.265625 -21.53125 11.265625 -21.53125 C 14.117188 -21.53125 16.445312 -20.65625 18.25 -18.90625 C 20.050781 -17.164062 21.054688 -14.796875 21.265625 -11.796875 L 21.3125 -10.359375 C 21.3125 -7.109375 20.40625 -4.503906 18.59375 -2.546875 C 16.78125 -0.585938 14.347656 0.390625 11.296875 0.390625 C 8.253906 0.390625 5.828125 -0.582031 4.015625 -2.53125 C 2.203125 -4.488281 1.296875 -7.148438 1.296875 -10.515625 Z M 6.9375 -10.359375 C 6.9375 -8.347656 7.3125 -6.8125 8.0625 -5.75 C 8.820312 -4.6875 9.90625 -4.15625 11.3125 -4.15625 C 12.675781 -4.15625 13.742188 -4.679688 14.515625 -5.734375 C 15.285156 -6.785156 15.671875 -8.460938 15.671875 -10.765625 C 15.671875 -12.734375 15.285156 -14.253906 14.515625 -15.328125 C 13.742188 -16.410156 12.660156 -16.953125 11.265625 -16.953125 C 9.890625 -16.953125 8.820312 -16.414062 8.0625 -15.34375 C 7.3125 -14.269531 6.9375 -12.609375 6.9375 -10.359375 Z M 6.9375 -10.359375 "/></g></g></g><g fill="#000000" fill-opacity="1"><g transform="translate(299.813524, 227.268134)"><g><path d="M 9.84375 -8.484375 L 7.8125 -6.453125 L 7.8125 0 L 2.171875 0 L 2.171875 -30 L 7.8125 -30 L 7.8125 -13.375 L 8.90625 -14.78125 L 14.3125 -21.140625 L 21.09375 -21.140625 L 13.453125 -12.328125 L 21.765625 0 L 15.28125 0 Z M 9.84375 -8.484375 "/></g></g></g></svg>